<?xml version="1.0" encoding="UTF-8" standalone="no"?>
<svg width="301px" height="407px" viewBox="0 0 301 407" version="1.1" xmlns="http://www.w3.org/2000/svg" xmlns:xlink="http://www.w3.org/1999/xlink" xmlns:sketch="http://www.bohemiancoding.com/sketch/ns">
    <!-- Generator: Sketch 3.0.4 (8053) - http://www.bohemiancoding.com/sketch -->
    <title>construction-unit-before-sm0</title>
    <desc>Created with Sketch.</desc>
    <defs>
        <rect id="path-1" x="138" y="89" width="411.296875" height="315.023568"></rect>
    </defs>
    <g id="Page-1" stroke="none" stroke-width="1" fill="none" fill-rule="evenodd" sketch:type="MSPage">
        <rect id="Rectangle-158" fill="#FAE683" sketch:type="MSShapeGroup" x="138" y="38" width="411.296875" height="51.8046875"></rect>
        <g id="Group-3" sketch:type="MSLayerGroup" transform="translate(88.000000, 33.000000)" fill="#D0BF6A">
            <rect id="Rectangle-2483" sketch:type="MSShapeGroup" transform="translate(42.000000, 69.535156) rotate(30.000000) translate(-42.000000, -69.535156) " x="38" y="-7.9296875" width="8" height="154.929688"></rect>
            <rect id="Rectangle-2484" sketch:type="MSShapeGroup" transform="translate(60.000000, 69.535156) rotate(30.000000) translate(-60.000000, -69.535156) " x="56" y="-7.9296875" width="8" height="154.929688"></rect>
            <rect id="Rectangle-2486" sketch:type="MSShapeGroup" transform="translate(78.000000, 69.535156) rotate(30.000000) translate(-78.000000, -69.535156) " x="74" y="-7.9296875" width="8" height="154.929688"></rect>
            <rect id="Rectangle-2485" sketch:type="MSShapeGroup" transform="translate(96.000000, 69.535156) rotate(30.000000) translate(-96.000000, -69.535156) " x="92" y="-7.9296875" width="8" height="154.929688"></rect>
            <rect id="Rectangle-2490" sketch:type="MSShapeGroup" transform="translate(114.000000, 69.535156) rotate(30.000000) translate(-114.000000, -69.535156) " x="110" y="-7.9296875" width="8" height="154.929688"></rect>
            <rect id="Rectangle-2487" sketch:type="MSShapeGroup" transform="translate(132.000000, 69.535156) rotate(30.000000) translate(-132.000000, -69.535156) " x="128" y="-7.9296875" width="8" height="154.929688"></rect>
            <rect id="Rectangle-2488" sketch:type="MSShapeGroup" transform="translate(150.000000, 69.535156) rotate(30.000000) translate(-150.000000, -69.535156) " x="146" y="-7.9296875" width="8" height="154.929688"></rect>
            <rect id="Rectangle-2489" sketch:type="MSShapeGroup" transform="translate(168.000000, 69.535156) rotate(30.000000) translate(-168.000000, -69.535156) " x="164" y="-7.9296875" width="8" height="154.929688"></rect>
            <rect id="Rectangle-2498" sketch:type="MSShapeGroup" transform="translate(186.000000, 69.535156) rotate(30.000000) translate(-186.000000, -69.535156) " x="182" y="-7.9296875" width="8" height="154.929688"></rect>
            <rect id="Rectangle-2491" sketch:type="MSShapeGroup" transform="translate(204.000000, 69.535156) rotate(30.000000) translate(-204.000000, -69.535156) " x="200" y="-7.9296875" width="8" height="154.929688"></rect>
            <rect id="Rectangle-2492" sketch:type="MSShapeGroup" transform="translate(222.000000, 69.535156) rotate(30.000000) translate(-222.000000, -69.535156) " x="218" y="-7.9296875" width="8" height="154.929688"></rect>
            <rect id="Rectangle-2493" sketch:type="MSShapeGroup" transform="translate(240.000000, 69.535156) rotate(30.000000) translate(-240.000000, -69.535156) " x="236" y="-7.9296875" width="8" height="154.929688"></rect>
        </g>
        <rect id="Rectangle-2517" fill="#FFFFFF" sketch:type="MSShapeGroup" x="64" y="83" width="73" height="92"></rect>
        <rect id="Rectangle-156" fill="#FAE683" sketch:type="MSShapeGroup" x="138" y="89" width="60" height="315.023568"></rect>
        <g id="Rectangle-157" opacity="0.800000012">
            <use sketch:type="MSShapeGroup" xlink:href="#path-1"></use>
            <use xlink:href="#path-1"></use>
            <use xlink:href="#path-1"></use>
        </g>
        <path d="M137,5 L137,404" id="Line-7" stroke="#979797" stroke-width="2" stroke-linecap="square" sketch:type="MSShapeGroup"></path>
        <text id="South-Africa-3" fill="#326B84" sketch:type="MSTextLayer" font-family="Cronos Pro" font-size="14" font-weight="260">
            <tspan x="31" y="116">South Africa</tspan>
        </text>
        <text id="Australia-3" fill="#326B84" sketch:type="MSTextLayer" font-family="Cronos Pro" font-size="14" font-weight="260">
            <tspan x="58" y="184">Australia</tspan>
        </text>
        <text id="South-Korea-2" fill="#326B84" sketch:type="MSTextLayer" font-family="Cronos Pro" font-size="14" font-weight="260">
            <tspan x="43" y="218">South Korea</tspan>
        </text>
        <text id="Indonesia-2" fill="#326B84" sketch:type="MSTextLayer" font-family="Cronos Pro" font-size="14" font-weight="260">
            <tspan x="45" y="150">Indonesia</tspan>
        </text>
        <text id="Europe-30" fill="#326B84" sketch:type="MSTextLayer" font-family="Cronos Pro" font-size="14" font-weight="260" sketch:alignment="right">
            <tspan x="75.8896484" y="320">Europe 28</tspan>
        </text>
        <text id="Ukraine-2" fill="#326B84" sketch:type="MSTextLayer" font-family="Cronos Pro" font-size="14" font-weight="260" sketch:alignment="right">
            <tspan x="67.4628906" y="286">Ukraine</tspan>
        </text>
        <path d="M122.5,51.5 L38.4916673,51.5" id="Line-8" stroke="#979797" stroke-width="3" stroke-linecap="square" sketch:type="MSShapeGroup"></path>
        <path id="Line-8-decoration-1" d="M49.3,48.5 C45.52,49.55 42.28,50.45 38.5,51.5 C42.28,52.55 45.52,53.45 49.3,54.5" stroke="#979797" stroke-width="3" stroke-linecap="square"></path>
        <text id="Construction-within--2" sketch:type="MSTextLayer" font-family="Cronos Pro" font-size="16" font-weight="260" sketch:alignment="right" fill="#545454">
            <tspan x="0.5625" y="15">Construction within </tspan>
            <tspan x="36.5546875" y="33">450 ppm limit</tspan>
        </text>
        <rect id="Rectangle-2518" fill="#FFFFFF" sketch:type="MSShapeGroup" x="138" y="32" width="672" height="39"></rect>
        <rect id="Rectangle-2519" fill="#FFFFFF" sketch:type="MSShapeGroup" x="198" y="70" width="368" height="107"></rect>
        <text id="Construction-exceedi-2" sketch:type="MSTextLayer" font-family="Cronos Pro" font-size="16" font-weight="260" fill="#545454">
            <tspan x="148" y="15">Construction exceeding</tspan>
            <tspan x="148" y="33"> 450 ppm limit</tspan>
        </text>
        <path d="M228.5,51.5 L151.5,51.5" id="Line-9" stroke="#979797" stroke-width="3" stroke-linecap="square" sketch:type="MSShapeGroup"></path>
        <path id="Line-9-decoration-1" d="M216.9,48.5 C220.68,49.55 223.92,50.45 227.7,51.5 C223.92,52.55 220.68,53.45 216.9,54.5" stroke="#979797" stroke-width="3" stroke-linecap="square"></path>
        <text id="Japan-3" fill="#326B84" sketch:type="MSTextLayer" font-family="Cronos Pro" font-size="14" font-weight="260">
            <tspan x="79" y="252">Japan</tspan>
        </text>
        <text id="Countries-must-halt-2" sketch:type="MSTextLayer" font-family="Cronos Pro" font-size="12" font-weight="260" fill="#484848">
            <tspan x="210" y="157.355372">Countries must halt</tspan>
            <tspan x="210" y="171.355372">development that </tspan>
            <tspan x="210" y="185.355372">exceeds their </tspan>
            <tspan x="210" y="199.355372">allowance within </tspan>
            <tspan x="210" y="213.355372">the 450ppm limit</tspan>
        </text>
        <text id="Russia-3" fill="#326B84" sketch:type="MSTextLayer" font-family="Cronos Pro" font-size="14" font-weight="260" sketch:alignment="right">
            <tspan x="96.5546875" y="354">Russia</tspan>
        </text>
        <text id="United-States-3" fill="#326B84" sketch:type="MSTextLayer" font-family="Cronos Pro" font-size="14" font-weight="260" sketch:alignment="right">
            <tspan x="58.4306641" y="390">United States</tspan>
        </text>
        <g id="Rectangle-path-+-Rectangle-path-+-Rectangle-path-2" sketch:type="MSLayerGroup" transform="translate(147.000000, 382.000000)" fill="#59ADCD">
            <rect id="Rectangle-path" sketch:type="MSShapeGroup" x="0.130434783" y="-0.0247933884" width="3.51363652" height="3.51103348"></rect>
            <rect id="Rectangle-path" sketch:type="MSShapeGroup" x="0.130434783" y="5.16392605" width="3.51363652" height="3.51103348"></rect>
            <rect id="Rectangle-path" sketch:type="MSShapeGroup" x="0.130434783" y="10.3526455" width="3.51363652" height="3.51103348"></rect>
        </g>
        <g id="Group-4" sketch:type="MSLayerGroup" transform="translate(147.000000, 340.000000)">
            <rect id="Rectangle-path" fill="#326B84" sketch:type="MSShapeGroup" x="0.130434783" y="-0.107438017" width="3.51363652" height="3.51103348"></rect>
            <rect id="Rectangle-path" fill="#326B84" sketch:type="MSShapeGroup" x="0.130434783" y="5.08128142" width="3.51363652" height="3.51103348"></rect>
            <rect id="Rectangle-path" fill="#326B84" sketch:type="MSShapeGroup" x="0.130434783" y="10.2700009" width="3.51363652" height="3.51103348"></rect>
            <rect id="Rectangle-path" fill="#326B84" sketch:type="MSShapeGroup" x="0.130434783" y="15.4587203" width="3.51363652" height="3.51103348"></rect>
            <rect id="Rectangle-path" fill="#326B84" sketch:type="MSShapeGroup" x="0.130434783" y="20.6474397" width="3.51363652" height="3.51103348"></rect>
            <rect id="Rectangle-path" fill="#326B84" sketch:type="MSShapeGroup" x="5.32300107" y="-0.107438017" width="3.51363652" height="3.51103348"></rect>
            <rect id="Rectangle-path" fill="#59ADCD" sketch:type="MSShapeGroup" x="5.32300107" y="5.08128142" width="3.51363652" height="3.51103348"></rect>
            <rect id="Rectangle-path" fill="#59ADCD" sketch:type="MSShapeGroup" x="5.32300107" y="10.2700009" width="3.51363652" height="3.51103348"></rect>
            <rect id="Rectangle-path" fill="#59ADCD" sketch:type="MSShapeGroup" x="5.32300107" y="15.4587203" width="3.51363652" height="3.51103348"></rect>
            <rect id="Rectangle-path" fill="#59ADCD" sketch:type="MSShapeGroup" x="5.32300107" y="20.6474397" width="3.51363652" height="3.51103348"></rect>
            <rect id="Rectangle-path" fill="#59ADCD" sketch:type="MSShapeGroup" x="10.5155674" y="-0.107438017" width="3.51363652" height="3.51103348"></rect>
            <rect id="Rectangle-path" fill="#59ADCD" sketch:type="MSShapeGroup" x="10.5155674" y="5.08128142" width="3.51363652" height="3.51103348"></rect>
        </g>
        <g id="Group-5" sketch:type="MSLayerGroup" transform="translate(147.000000, 304.000000)">
            <rect id="Rectangle-path" fill="#326B84" sketch:type="MSShapeGroup" x="0.130434783" y="-0.190082645" width="3.51363652" height="3.51103348"></rect>
            <rect id="Rectangle-path" fill="#326B84" sketch:type="MSShapeGroup" x="0.130434783" y="4.99863679" width="3.51363652" height="3.51103348"></rect>
            <rect id="Rectangle-path" fill="#326B84" sketch:type="MSShapeGroup" x="0.130434783" y="10.1873562" width="3.51363652" height="3.51103348"></rect>
            <rect id="Rectangle-path" fill="#326B84" sketch:type="MSShapeGroup" x="0.130434783" y="15.3760757" width="3.51363652" height="3.51103348"></rect>
            <rect id="Rectangle-path" fill="#326B84" sketch:type="MSShapeGroup" x="0.130434783" y="20.5647951" width="3.51363652" height="3.51103348"></rect>
            <rect id="Rectangle-path" fill="#326B84" sketch:type="MSShapeGroup" x="5.32300107" y="-0.190082645" width="3.51363652" height="3.51103348"></rect>
            <rect id="Rectangle-path" fill="#326B84" sketch:type="MSShapeGroup" x="5.32300107" y="4.99863679" width="3.51363652" height="3.51103348"></rect>
            <rect id="Rectangle-path" fill="#326B84" sketch:type="MSShapeGroup" x="5.32300107" y="10.1873562" width="3.51363652" height="3.51103348"></rect>
            <rect id="Rectangle-path" fill="#326B84" sketch:type="MSShapeGroup" x="5.32300107" y="15.3760757" width="3.51363652" height="3.51103348"></rect>
            <rect id="Rectangle-path" fill="#326B84" sketch:type="MSShapeGroup" x="5.32300107" y="20.5647951" width="3.51363652" height="3.51103348"></rect>
            <rect id="Rectangle-path" fill="#326B84" sketch:type="MSShapeGroup" x="10.5155674" y="-0.190082645" width="3.51363652" height="3.51103348"></rect>
            <rect id="Rectangle-path" fill="#326B84" sketch:type="MSShapeGroup" x="10.5155674" y="4.99863679" width="3.51363652" height="3.51103348"></rect>
            <rect id="Rectangle-path" fill="#326B84" sketch:type="MSShapeGroup" x="10.5155674" y="10.1873562" width="3.51363652" height="3.51103348"></rect>
            <rect id="Rectangle-path" fill="#326B84" sketch:type="MSShapeGroup" x="10.5155674" y="15.3760757" width="3.51363652" height="3.51103348"></rect>
            <rect id="Rectangle-path" fill="#59ADCD" sketch:type="MSShapeGroup" x="10.5155674" y="20.5647951" width="3.51363652" height="3.51103348"></rect>
            <rect id="Rectangle-path" fill="#59ADCD" sketch:type="MSShapeGroup" x="15.7081336" y="-0.190082645" width="3.51363652" height="3.51103348"></rect>
            <rect id="Rectangle-path" fill="#59ADCD" sketch:type="MSShapeGroup" x="15.7081336" y="4.99863679" width="3.51363652" height="3.51103348"></rect>
            <rect id="Rectangle-path" fill="#59ADCD" sketch:type="MSShapeGroup" x="15.7081336" y="10.1873562" width="3.51363652" height="3.51103348"></rect>
            <rect id="Rectangle-path" fill="#59ADCD" sketch:type="MSShapeGroup" x="15.7081336" y="15.3760757" width="3.51363652" height="3.51103348"></rect>
            <rect id="Rectangle-path" fill="#59ADCD" sketch:type="MSShapeGroup" x="15.7081336" y="20.5647951" width="3.51363652" height="3.51103348"></rect>
            <rect id="Rectangle-path" fill="#59ADCD" sketch:type="MSShapeGroup" x="20.9006999" y="-0.190082645" width="3.51363652" height="3.51103348"></rect>
            <rect id="Rectangle-path" fill="#59ADCD" sketch:type="MSShapeGroup" x="20.9006999" y="4.99863679" width="3.51363652" height="3.51103348"></rect>
            <rect id="Rectangle-path" fill="#59ADCD" sketch:type="MSShapeGroup" x="20.9006999" y="10.1873562" width="3.51363652" height="3.51103348"></rect>
            <rect id="Rectangle-path" fill="#59ADCD" sketch:type="MSShapeGroup" x="20.9006999" y="15.3760757" width="3.51363652" height="3.51103348"></rect>
            <rect id="Rectangle-path" fill="#59ADCD" sketch:type="MSShapeGroup" x="20.9006999" y="20.5647951" width="3.51363652" height="3.51103348"></rect>
            <rect id="Rectangle-path" fill="#59ADCD" sketch:type="MSShapeGroup" x="26.0932662" y="-0.190082645" width="3.51363652" height="3.51103348"></rect>
            <rect id="Rectangle-path" fill="#59ADCD" sketch:type="MSShapeGroup" x="26.0932662" y="4.99863679" width="3.51363652" height="3.51103348"></rect>
            <rect id="Rectangle-path" fill="#59ADCD" sketch:type="MSShapeGroup" x="26.0932662" y="10.1873562" width="3.51363652" height="3.51103348"></rect>
            <rect id="Rectangle-path" fill="#59ADCD" sketch:type="MSShapeGroup" x="26.0932662" y="15.3760757" width="3.51363652" height="3.51103348"></rect>
            <rect id="Rectangle-path" fill="#59ADCD" sketch:type="MSShapeGroup" x="26.0932662" y="20.5647951" width="3.51363652" height="3.51103348"></rect>
            <rect id="Rectangle-path" fill="#59ADCD" sketch:type="MSShapeGroup" x="31.2858325" y="-0.190082645" width="3.51363652" height="3.51103348"></rect>
            <rect id="Rectangle-path" fill="#59ADCD" sketch:type="MSShapeGroup" x="31.2858325" y="4.99863679" width="3.51363652" height="3.51103348"></rect>
            <rect id="Rectangle-path" fill="#59ADCD" sketch:type="MSShapeGroup" x="31.2858325" y="10.1873562" width="3.51363652" height="3.51103348"></rect>
            <rect id="Rectangle-path" fill="#59ADCD" sketch:type="MSShapeGroup" x="31.2858325" y="15.3760757" width="3.51363652" height="3.51103348"></rect>
            <rect id="Rectangle-path" fill="#59ADCD" sketch:type="MSShapeGroup" x="31.2858325" y="20.5647951" width="3.51363652" height="3.51103348"></rect>
            <rect id="Rectangle-path" fill="#59ADCD" sketch:type="MSShapeGroup" x="36.4783988" y="-0.190082645" width="3.51363652" height="3.51103348"></rect>
            <rect id="Rectangle-path" fill="#59ADCD" sketch:type="MSShapeGroup" x="36.4783988" y="4.99863679" width="3.51363652" height="3.51103348"></rect>
        </g>
        <g id="Rectangle-path-+-Rectangle-path-+-Rectangle-path-3" sketch:type="MSLayerGroup" transform="translate(147.000000, 274.000000)">
            <rect id="Rectangle-path" fill="#326B84" sketch:type="MSShapeGroup" x="0.130434783" y="-0.272727273" width="3.51363652" height="3.51103348"></rect>
            <rect id="Rectangle-path" fill="#59ADCD" sketch:type="MSShapeGroup" x="0.130434783" y="4.91599216" width="3.51363652" height="3.51103348"></rect>
            <rect id="Rectangle-path" fill="#59ADCD" sketch:type="MSShapeGroup" x="0.130434783" y="10.1047116" width="3.51363652" height="3.51103348"></rect>
        </g>
        <rect id="Rectangle-path-3" fill="#326B84" sketch:type="MSShapeGroup" x="124" y="274" width="3.51363652" height="3.51103348"></rect>
        <g id="Group-6" sketch:type="MSLayerGroup" transform="translate(147.000000, 238.000000)">
            <rect id="Rectangle-path" fill="#326B84" sketch:type="MSShapeGroup" x="0.130434783" y="-0.355371901" width="3.51363652" height="3.51103348"></rect>
            <rect id="Rectangle-path" fill="#326B84" sketch:type="MSShapeGroup" x="0.130434783" y="4.83334753" width="3.51363652" height="3.51103348"></rect>
            <rect id="Rectangle-path" fill="#326B84" sketch:type="MSShapeGroup" x="0.130434783" y="10.022067" width="3.51363652" height="3.51103348"></rect>
            <rect id="Rectangle-path" fill="#326B84" sketch:type="MSShapeGroup" x="0.130434783" y="15.2107864" width="3.51363652" height="3.51103348"></rect>
            <rect id="Rectangle-path" fill="#326B84" sketch:type="MSShapeGroup" x="0.130434783" y="20.3995058" width="3.51363652" height="3.51103348"></rect>
            <rect id="Rectangle-path" fill="#59ADCD" sketch:type="MSShapeGroup" x="5.32300107" y="-0.355371901" width="3.51363652" height="3.51103348"></rect>
            <rect id="Rectangle-path" fill="#59ADCD" sketch:type="MSShapeGroup" x="5.32300107" y="4.83334753" width="3.51363652" height="3.51103348"></rect>
        </g>
        <rect id="Rectangle-path-4" fill="#326B84" sketch:type="MSShapeGroup" x="124" y="238" width="3.51363652" height="3.51103348"></rect>
        <g id="Group-7" sketch:type="MSLayerGroup" transform="translate(124.000000, 202.000000)" fill="#326B84">
            <rect id="Rectangle-path" sketch:type="MSShapeGroup" x="0" y="0" width="3.51363652" height="3.51103348"></rect>
            <rect id="Rectangle-path" sketch:type="MSShapeGroup" x="0" y="5" width="3.51363652" height="3.51103348"></rect>
            <rect id="Rectangle-path" sketch:type="MSShapeGroup" x="0" y="10" width="3.51363652" height="3.51103348"></rect>
            <rect id="Rectangle-path" sketch:type="MSShapeGroup" x="0" y="15" width="3.51363652" height="3.51103348"></rect>
        </g>
        <g id="Group-8" sketch:type="MSLayerGroup" transform="translate(147.000000, 202.000000)">
            <rect id="Rectangle-path" fill="#326B84" sketch:type="MSShapeGroup" x="-0.0348584629" y="-0.104711596" width="3.51363652" height="3.51103348"></rect>
            <rect id="Rectangle-path" fill="#326B84" sketch:type="MSShapeGroup" x="-0.0348584629" y="5.08400784" width="3.51363652" height="3.51103348"></rect>
            <rect id="Rectangle-path" fill="#326B84" sketch:type="MSShapeGroup" x="-0.0348584629" y="10.2727273" width="3.51363652" height="3.51103348"></rect>
            <rect id="Rectangle-path" fill="#326B84" sketch:type="MSShapeGroup" x="-0.0348584629" y="15.4614467" width="3.51363652" height="3.51103348"></rect>
            <rect id="Rectangle-path" fill="#59ADCD" sketch:type="MSShapeGroup" x="-0.0348584629" y="20.6501661" width="3.51363652" height="3.51103348"></rect>
            <rect id="Rectangle-path" fill="#59ADCD" sketch:type="MSShapeGroup" x="5.15770782" y="-0.104711596" width="3.51363652" height="3.51103348"></rect>
            <rect id="Rectangle-path" fill="#59ADCD" sketch:type="MSShapeGroup" x="5.15770782" y="5.08400784" width="3.51363652" height="3.51103348"></rect>
            <rect id="Rectangle-path" fill="#59ADCD" sketch:type="MSShapeGroup" x="5.15770782" y="10.2727273" width="3.51363652" height="3.51103348"></rect>
            <rect id="Rectangle-path" fill="#59ADCD" sketch:type="MSShapeGroup" x="5.15770782" y="15.4614467" width="3.51363652" height="3.51103348"></rect>
            <rect id="Rectangle-path" fill="#59ADCD" sketch:type="MSShapeGroup" x="5.15770782" y="20.6501661" width="3.51363652" height="3.51103348"></rect>
            <rect id="Rectangle-path" fill="#59ADCD" sketch:type="MSShapeGroup" x="10.3502741" y="-0.104711596" width="3.51363652" height="3.51103348"></rect>
        </g>
        <g id="Group-9" sketch:type="MSLayerGroup" transform="translate(124.000000, 167.000000)" fill="#59ADCD">
            <rect id="Rectangle-path" sketch:type="MSShapeGroup" x="0" y="0" width="3.51363652" height="3.51103348"></rect>
            <rect id="Rectangle-path" sketch:type="MSShapeGroup" x="0" y="6" width="3.51363652" height="3.51103348"></rect>
            <rect id="Rectangle-path" sketch:type="MSShapeGroup" x="0" y="11" width="3.51363652" height="3.51103348"></rect>
            <rect id="Rectangle-path" sketch:type="MSShapeGroup" x="0" y="16" width="3.51363652" height="3.51103348"></rect>
        </g>
        <rect id="Rectangle-path-5" fill="#59ADCD" sketch:type="MSShapeGroup" x="147" y="167" width="3.51363652" height="3.51103348"></rect>
        <g id="Group-10" sketch:type="MSLayerGroup" transform="translate(119.000000, 133.000000)">
            <rect id="Rectangle-path" fill="#326B84" sketch:type="MSShapeGroup" x="-0.264214047" y="0.396694215" width="3.51363652" height="3.51103348"></rect>
            <rect id="Rectangle-path" fill="#326B84" sketch:type="MSShapeGroup" x="-0.264214047" y="5.58541365" width="3.51363652" height="3.51103348"></rect>
            <rect id="Rectangle-path" fill="#326B84" sketch:type="MSShapeGroup" x="-0.264214047" y="10.7741331" width="3.51363652" height="3.51103348"></rect>
            <rect id="Rectangle-path" fill="#326B84" sketch:type="MSShapeGroup" x="-0.264214047" y="15.9628525" width="3.51363652" height="3.51103348"></rect>
            <rect id="Rectangle-path" fill="#326B84" sketch:type="MSShapeGroup" x="-0.264214047" y="21.151572" width="3.51363652" height="3.51103348"></rect>
            <rect id="Rectangle-path" fill="#326B84" sketch:type="MSShapeGroup" x="4.92835224" y="0.396694215" width="3.51363652" height="3.51103348"></rect>
            <rect id="Rectangle-path" fill="#326B84" sketch:type="MSShapeGroup" x="4.92835224" y="5.58541365" width="3.51363652" height="3.51103348"></rect>
            <rect id="Rectangle-path" fill="#326B84" sketch:type="MSShapeGroup" x="4.92835224" y="10.7741331" width="3.51363652" height="3.51103348"></rect>
            <rect id="Rectangle-path" fill="#59ADCD" sketch:type="MSShapeGroup" x="4.92835224" y="15.9628525" width="3.51363652" height="3.51103348"></rect>
        </g>
        <g id="Group-11" sketch:type="MSLayerGroup" transform="translate(147.000000, 133.000000)" fill="#59ADCD">
            <rect id="Rectangle-path" sketch:type="MSShapeGroup" x="0.120918526" y="0.396694215" width="3.51363652" height="3.51103348"></rect>
            <rect id="Rectangle-path" sketch:type="MSShapeGroup" x="0.120918526" y="5.58541365" width="3.51363652" height="3.51103348"></rect>
            <rect id="Rectangle-path" sketch:type="MSShapeGroup" x="0.120918526" y="10.7741331" width="3.51363652" height="3.51103348"></rect>
            <rect id="Rectangle-path" sketch:type="MSShapeGroup" x="0.120918526" y="15.9628525" width="3.51363652" height="3.51103348"></rect>
            <rect id="Rectangle-path" sketch:type="MSShapeGroup" x="0.120918526" y="21.151572" width="3.51363652" height="3.51103348"></rect>
            <rect id="Rectangle-path" sketch:type="MSShapeGroup" x="5.31348481" y="0.396694215" width="3.51363652" height="3.51103348"></rect>
            <rect id="Rectangle-path" sketch:type="MSShapeGroup" x="5.31348481" y="5.58541365" width="3.51363652" height="3.51103348"></rect>
            <rect id="Rectangle-path" sketch:type="MSShapeGroup" x="5.31348481" y="10.7741331" width="3.51363652" height="3.51103348"></rect>
            <rect id="Rectangle-path" sketch:type="MSShapeGroup" x="5.31348481" y="15.9628525" width="3.51363652" height="3.51103348"></rect>
            <rect id="Rectangle-path" sketch:type="MSShapeGroup" x="5.31348481" y="21.151572" width="3.51363652" height="3.51103348"></rect>
            <rect id="Rectangle-path" sketch:type="MSShapeGroup" x="10.5060511" y="0.396694215" width="3.51363652" height="3.51103348"></rect>
            <rect id="Rectangle-path" sketch:type="MSShapeGroup" x="10.5060511" y="5.58541365" width="3.51363652" height="3.51103348"></rect>
            <rect id="Rectangle-path" sketch:type="MSShapeGroup" x="10.5060511" y="10.7741331" width="3.51363652" height="3.51103348"></rect>
            <rect id="Rectangle-path" sketch:type="MSShapeGroup" x="10.5060511" y="15.9628525" width="3.51363652" height="3.51103348"></rect>
            <rect id="Rectangle-path" sketch:type="MSShapeGroup" x="10.5060511" y="21.151572" width="3.51363652" height="3.51103348"></rect>
            <rect id="Rectangle-path" sketch:type="MSShapeGroup" x="15.6986174" y="0.396694215" width="3.51363652" height="3.51103348"></rect>
            <rect id="Rectangle-path" sketch:type="MSShapeGroup" x="15.6986174" y="5.58541365" width="3.51363652" height="3.51103348"></rect>
            <rect id="Rectangle-path" sketch:type="MSShapeGroup" x="15.6986174" y="10.7741331" width="3.51363652" height="3.51103348"></rect>
            <rect id="Rectangle-path" sketch:type="MSShapeGroup" x="15.6986174" y="15.9628525" width="3.51363652" height="3.51103348"></rect>
            <rect id="Rectangle-path" sketch:type="MSShapeGroup" x="15.6986174" y="21.151572" width="3.51363652" height="3.51103348"></rect>
            <rect id="Rectangle-path" sketch:type="MSShapeGroup" x="20.8911837" y="0.396694215" width="3.51363652" height="3.51103348"></rect>
            <rect id="Rectangle-path" sketch:type="MSShapeGroup" x="20.8911837" y="5.58541365" width="3.51363652" height="3.51103348"></rect>
            <rect id="Rectangle-path" sketch:type="MSShapeGroup" x="20.8911837" y="10.7741331" width="3.51363652" height="3.51103348"></rect>
            <rect id="Rectangle-path" sketch:type="MSShapeGroup" x="20.8911837" y="15.9628525" width="3.51363652" height="3.51103348"></rect>
            <rect id="Rectangle-path" sketch:type="MSShapeGroup" x="20.8911837" y="21.151572" width="3.51363652" height="3.51103348"></rect>
        </g>
        <g id="Group-12" sketch:type="MSLayerGroup" transform="translate(114.000000, 100.000000)">
            <rect id="Rectangle-path" fill="#326B84" sketch:type="MSShapeGroup" x="-0.301003344" y="0.314049587" width="3.51363652" height="3.51103348"></rect>
            <rect id="Rectangle-path" fill="#326B84" sketch:type="MSShapeGroup" x="-0.301003344" y="5.50276902" width="3.51363652" height="3.51103348"></rect>
            <rect id="Rectangle-path" fill="#326B84" sketch:type="MSShapeGroup" x="-0.301003344" y="10.6914885" width="3.51363652" height="3.51103348"></rect>
            <rect id="Rectangle-path" fill="#326B84" sketch:type="MSShapeGroup" x="-0.301003344" y="15.8802079" width="3.51363652" height="3.51103348"></rect>
            <rect id="Rectangle-path" fill="#326B84" sketch:type="MSShapeGroup" x="-0.301003344" y="21.0689273" width="3.51363652" height="3.51103348"></rect>
            <rect id="Rectangle-path" fill="#326B84" sketch:type="MSShapeGroup" x="4.89156294" y="0.314049587" width="3.51363652" height="3.51103348"></rect>
            <rect id="Rectangle-path" fill="#326B84" sketch:type="MSShapeGroup" x="4.89156294" y="5.50276902" width="3.51363652" height="3.51103348"></rect>
            <rect id="Rectangle-path" fill="#326B84" sketch:type="MSShapeGroup" x="4.89156294" y="10.6914885" width="3.51363652" height="3.51103348"></rect>
            <rect id="Rectangle-path" fill="#326B84" sketch:type="MSShapeGroup" x="4.89156294" y="15.8802079" width="3.51363652" height="3.51103348"></rect>
            <rect id="Rectangle-path" fill="#326B84" sketch:type="MSShapeGroup" x="4.89156294" y="21.0689273" width="3.51363652" height="3.51103348"></rect>
            <rect id="Rectangle-path" fill="#59ADCD" sketch:type="MSShapeGroup" x="10.0841292" y="0.314049587" width="3.51363652" height="3.51103348"></rect>
            <rect id="Rectangle-path" fill="#59ADCD" sketch:type="MSShapeGroup" x="10.0841292" y="5.50276902" width="3.51363652" height="3.51103348"></rect>
            <rect id="Rectangle-path" fill="#59ADCD" sketch:type="MSShapeGroup" x="10.0841292" y="10.6914885" width="3.51363652" height="3.51103348"></rect>
        </g>
        <g id="Group-13" sketch:type="MSLayerGroup" transform="translate(221.000000, 69.000000)">
            <text id="Under-" fill="#457B8F" sketch:type="MSTextLayer" font-family="Cronos Pro" font-size="9" font-weight="260" line-spacing="9">
                <tspan x="0" y="33">Under </tspan>
                <tspan x="0" y="42">construction</tspan>
            </text>
            <text id="Planned" fill="#59ADCD" sketch:type="MSTextLayer" font-family="Cronos Pro" font-size="9" font-weight="260" line-spacing="9">
                <tspan x="52" y="43">Planned</tspan>
            </text>
            <g id="Group" transform="translate(0.000000, 47.000000)" sketch:type="MSShapeGroup">
                <rect id="Rectangle-161" fill="#326B84" x="0" y="0" width="8.55555556" height="8.5"></rect>
                <rect id="Rectangle-162" fill="#326B84" x="10" y="0" width="8.55555556" height="8.5"></rect>
                <rect id="Rectangle-164" fill="#326B84" x="20" y="0" width="8.55555556" height="8.5"></rect>
                <rect id="Rectangle-163" fill="#326B84" x="30" y="0" width="8.55555556" height="8.5"></rect>
                <rect id="Rectangle-168" fill="#326B84" x="40" y="0" width="8.55555556" height="8.5"></rect>
                <rect id="Rectangle-165" fill="#59ADCD" x="50" y="0" width="8.55555556" height="8.5"></rect>
                <rect id="Rectangle-166" fill="#59ADCD" x="60" y="0" width="8.55555556" height="8.5"></rect>
                <rect id="Rectangle-167" fill="#59ADCD" x="70" y="0" width="8.55555556" height="8.5"></rect>
                <rect id="Rectangle-176" fill="#326B84" x="0" y="10" width="8.55555556" height="8.5"></rect>
                <rect id="Rectangle-169" fill="#326B84" x="10" y="10" width="8.55555556" height="8.5"></rect>
                <rect id="Rectangle-170" fill="#326B84" x="20" y="10" width="8.55555556" height="8.5"></rect>
                <rect id="Rectangle-171" fill="#326B84" x="30" y="10" width="8.55555556" height="8.5"></rect>
                <rect id="Rectangle-172" fill="#59ADCD" x="40" y="10" width="8.55555556" height="8.5"></rect>
                <rect id="Rectangle-173" fill="#59ADCD" x="50" y="10" width="8.55555556" height="8.5"></rect>
                <rect id="Rectangle-174" fill="#59ADCD" x="60" y="10" width="8.55555556" height="8.5"></rect>
                <rect id="Rectangle-175" fill="#59ADCD" x="70" y="10" width="8.55555556" height="8.5"></rect>
            </g>
            <text id="=-1-gigawatt" fill="#59ADCD" sketch:type="MSTextLayer" font-family="Cronos Pro" font-size="10" font-weight="260">
                <tspan x="13" y="9">= 1 gigawatt</tspan>
            </text>
            <rect id="Rectangle-190" fill="#59ADCD" sketch:type="MSShapeGroup" x="1" y="2" width="8.55555556" height="8.5"></rect>
        </g>
    </g>
</svg>