<?xml version="1.0" encoding="UTF-8" standalone="no"?>
<svg width="556px" height="276px" viewBox="0 0 556 276" version="1.1" xmlns="http://www.w3.org/2000/svg" xmlns:xlink="http://www.w3.org/1999/xlink" xmlns:sketch="http://www.bohemiancoding.com/sketch/ns">
    <!-- Generator: Sketch 3.0.4 (8053) - http://www.bohemiancoding.com/sketch -->
    <title>gauges</title>
    <desc>Created with Sketch.</desc>
    <defs></defs>
    <g id="Page-1" stroke="none" stroke-width="1" fill="none" fill-rule="evenodd" sketch:type="MSPage">
        <ellipse id="Oval-27" opacity="0.5" fill="#D8D8D8" sketch:type="MSShapeGroup" cx="428.96383" cy="137" rx="91.083388" ry="91.083388"></ellipse>
        <circle id="Oval-28" opacity="0.5" fill="#D8D8D8" sketch:type="MSShapeGroup" cx="159" cy="137" r="92"></circle>
        <g id="Oval-3-+-4" sketch:type="MSLayerGroup" transform="translate(100.000000, -1.000000)">
            <circle id="Oval-3" fill="#E92222" sketch:type="MSShapeGroup" cx="15" cy="16" r="15"></circle>
            <text id="2" sketch:type="MSTextLayer" font-family=".Lucida Grande UI" font-size="24" font-weight="normal" fill="#FFFFFF">
                <tspan x="9" y="23">2</tspan>
            </text>
        </g>
        <g id="Group" sketch:type="MSLayerGroup" transform="translate(362.190249, 68.214179)" fill="#FFFFFF">
            <path d="M17.1666709,112.129523 C16.8812103,111.814933 16.5998276,111.495101 16.3207753,111.174103 L20.8974667,107.200375 C21.1503033,107.491079 21.4037224,107.776539 21.660637,108.061417 L17.1666709,112.129523 L17.1666709,112.129523 Z" id="Shape" sketch:type="MSShapeGroup"></path>
            <path d="M68.1796528,134.29525 L68.0777025,128.232998 C68.8711666,128.219599 69.6611352,128.193383 70.4476084,128.150856 L70.7773446,134.204369 C69.9174673,134.24981 69.0517642,134.280686 68.1796528,134.29525 L68.1796528,134.29525 Z M93.4726308,128.933833 L91.087578,123.362108 C91.8122985,123.050431 92.5311933,122.726521 93.2425146,122.392124 L95.8361284,127.870056 C95.0572287,128.239989 94.2678426,128.593611 93.4726308,128.933833 L93.4726308,128.933833 Z M114.847225,114.416703 L110.545507,110.145863 C111.101864,109.585428 111.647153,109.013341 112.181372,108.431934 L116.643296,112.536741 C116.056646,113.174658 115.458343,113.802672 114.847225,114.416703 L114.847225,114.416703 Z M129.212886,92.9191867 L123.617857,90.587148 C123.921378,89.857767 124.212664,89.121395 124.488803,88.3786148 L130.170053,90.4933538 C129.866532,91.3077905 129.545535,92.116984 129.212886,92.9191867 L129.212886,92.9191867 Z M4.28831793,91.2180743 C3.97664152,90.4112111 3.68011199,89.5944441 3.3998945,88.7695211 L9.13590569,86.8149895 C9.39165512,87.5635955 9.66080373,88.3028803 9.94451665,89.0363394 L4.28831793,91.2180743 L4.28831793,91.2180743 Z M134.377976,67.580768 L128.316306,67.5219282 L128.318637,67.0115944 C128.318637,66.3934848 128.308733,65.7730448 128.290091,65.1543525 L134.34943,64.9760853 C134.369237,65.6524522 134.380306,66.3288192 134.380889,67.0104293 L134.377976,67.580768 L134.377976,67.580768 Z M5.87582864,65.8615958 L-0.185840704,65.7514896 C-0.169528667,64.8811259 -0.135739448,64.0142577 -0.0885510563,63.1532152 L5.96554485,63.4975157 C5.9195216,64.2834063 5.88981039,65.0722098 5.87582864,65.8615958 L5.87582864,65.8615958 Z M124.008763,44.402529 C123.716312,43.6702351 123.411626,42.9443494 123.094124,42.2231244 L128.636139,39.7716583 C128.986265,40.5604618 129.321827,41.3580039 129.642242,42.1625368 L124.008763,44.402529 L124.008763,44.402529 Z M10.8131326,42.860459 L5.24140693,40.4695805 C5.58512485,39.6697081 5.94340708,38.8797394 6.31741878,38.0967617 L11.7918548,40.697949 C11.4516323,41.4127657 11.124809,42.1334082 10.8131326,42.860459 L10.8131326,42.860459 Z M111.277801,24.6305928 C110.731348,24.0602541 110.173826,23.5015669 109.605818,22.9545311 L113.818401,18.5945567 C114.441754,19.1969369 115.054038,19.810386 115.653505,20.4366517 L111.277801,24.6305928 L111.277801,24.6305928 Z M24.0888002,23.4322407 L19.8296109,19.1165419 C20.447138,18.5077533 21.0763165,17.9094511 21.716564,17.3245481 L25.8021466,21.8045325 C25.2195739,22.3346737 24.6486526,22.878214 24.0888002,23.4322407 L24.0888002,23.4322407 Z M92.040667,11.0834464 C91.3211897,10.7618662 90.5935563,10.4519375 89.8595147,10.159486 L92.112906,4.53066819 C92.9209344,4.85457863 93.7237197,5.19421854 94.5183489,5.55017048 L92.040667,11.0834464 L92.040667,11.0834464 Z M43.681304,10.419896 L41.3626645,4.81962427 C42.1619543,4.48872295 42.9699826,4.17296853 43.7832542,3.872361 L45.8851766,9.5588535 C45.1441441,9.83149754 44.4089373,10.1210362 43.681304,10.419896 L43.681304,10.419896 Z M69.1111866,5.81931909 C68.4412279,5.79951162 67.7671913,5.78669502 67.0914069,5.78669502 L66.7529321,5.78960788 L66.6952574,-0.272644042 L67.0616957,-0.275556905 L67.0756774,-0.275556905 C67.8394303,-0.275556905 68.5734719,-0.262740305 69.3051833,-0.240019968 L69.1111866,5.81931909 L69.1111866,5.81931909 Z" id="Shape" sketch:type="MSShapeGroup"></path>
            <path d="M44.9542254,130.574941 C44.5557456,130.435123 44.1590136,130.294141 43.7651944,130.147332 L45.8653692,124.461423 C46.2265643,124.595997 46.5918374,124.727076 46.9582756,124.854659 L44.9542254,130.574941 L44.9542254,130.574941 Z" id="Shape" sketch:type="MSShapeGroup"></path>
        </g>
        <path d="M376.197628,168.058408 C376.197628,168.729532 375.653505,169.270742 374.984712,169.270742 C374.315918,169.270742 373.772961,168.730114 373.772961,168.058408 C373.772961,167.387867 374.315918,166.846657 374.984712,166.846657 C375.653505,166.846657 376.197628,167.387867 376.197628,168.058408 L376.197628,168.058408 Z" id="Shape" fill="#FFFFFF" sketch:type="MSShapeGroup"></path>
        <ellipse id="Oval" fill="#FFFFFF" sketch:type="MSShapeGroup" cx="366.31603" cy="145.744124" rx="1.21291644" ry="1.21291644"></ellipse>
        <path d="M368.339887,121.754944 C368.339887,122.426068 367.795182,122.966113 367.126971,122.966113 C366.45643,122.966113 365.914054,122.426068 365.914054,121.754944 C365.914054,121.084403 366.45643,120.540862 367.126971,120.540862 C367.795182,120.540862 368.339887,121.084403 368.339887,121.754944 L368.339887,121.754944 Z" id="Shape" fill="#FFFFFF" sketch:type="MSShapeGroup"></path>
        <ellipse id="Oval" fill="#FFFFFF" sketch:type="MSShapeGroup" cx="376.802339" cy="100.886023" rx="1.21291644" ry="1.21291644"></ellipse>
        <path d="M395.49535,83.5655532 C395.49535,84.2343467 394.95181,84.7755568 394.283016,84.7755568 C393.614223,84.7755568 393.069517,84.2349293 393.069517,83.5655532 C393.069517,82.8938469 393.614223,82.3520542 394.283016,82.3520542 C394.95181,82.3520542 395.49535,82.8932643 395.49535,83.5655532 L395.49535,83.5655532 Z" id="Shape" fill="#FFFFFF" sketch:type="MSShapeGroup"></path>
        <ellipse id="Oval" fill="#FFFFFF" sketch:type="MSShapeGroup" cx="417.582431" cy="74.6702501" rx="1.21291644" ry="1.21291644"></ellipse>
        <ellipse id="Oval" fill="#FFFFFF" sketch:type="MSShapeGroup" cx="441.467913" cy="74.6702501" rx="1.21291644" ry="1.21291644"></ellipse>
        <path d="M465.208917,83.5655532 C465.208917,84.2343467 464.664794,84.7755568 463.996001,84.7755568 C463.327207,84.7755568 462.783084,84.2349293 462.783084,83.5655532 C462.783084,82.8938469 463.327207,82.3520542 463.996001,82.3520542 C464.664794,82.3520542 465.208917,82.8932643 465.208917,83.5655532 L465.208917,83.5655532 Z" id="Shape" fill="#FFFFFF" sketch:type="MSShapeGroup"></path>
        <ellipse id="Oval" fill="#FFFFFF" sketch:type="MSShapeGroup" cx="481.665432" cy="100.886023" rx="1.21291644" ry="1.21291644"></ellipse>
        <ellipse id="Oval" fill="#FFFFFF" sketch:type="MSShapeGroup" cx="466.519123" cy="185.942226" rx="1.21349902" ry="1.21349902"></ellipse>
        <ellipse id="Oval" fill="#FFFFFF" sketch:type="MSShapeGroup" cx="482.829412" cy="167.880723" rx="1.2117513" ry="1.2117513"></ellipse>
        <ellipse id="Oval" fill="#FFFFFF" sketch:type="MSShapeGroup" cx="492.151741" cy="146.326697" rx="1.21291644" ry="1.21291644"></ellipse>
        <path d="M492.285733,121.752614 C492.285733,122.420825 491.742775,122.9632 491.072234,122.9632 C490.404023,122.9632 489.860483,122.421407 489.860483,121.752614 C489.860483,121.080325 490.404023,120.538532 491.072234,120.538532 C491.743358,120.538532 492.285733,121.080325 492.285733,121.752614 L492.285733,121.752614 Z" id="Shape" fill="#FFFFFF" sketch:type="MSShapeGroup"></path>
        <ellipse id="Oval" fill="#FFFFFF" sketch:type="MSShapeGroup" cx="444.962767" cy="195.844797" rx="1.21233387" ry="1.21233387"></ellipse>
        <path d="M422.167861,197.326862 C422.167861,197.995656 421.62432,198.538614 420.955527,198.538614 C420.285568,198.538614 419.743193,197.995656 419.743193,197.326862 C419.743193,196.654573 420.285568,196.112781 420.955527,196.112781 C421.624903,196.112781 422.167861,196.654573 422.167861,197.326862 L422.167861,197.326862 Z" id="Shape" fill="#FFFFFF" sketch:type="MSShapeGroup"></path>
        <ellipse id="Oval" fill="#D3D3D3" sketch:type="MSShapeGroup" cx="429.510607" cy="136.699682" rx="12.5585205" ry="12.5585205"></ellipse>
        <ellipse id="Oval" fill="#D3D3D3" sketch:type="MSShapeGroup" cx="160.108599" cy="136.596076" rx="12.7565444" ry="12.7565444"></ellipse>
        <path d="M173.798549,71.128957 C184.782432,73.4576902 194.887339,77.6377883 204.601672,86.1252337" id="Shape" stroke="#FFFFFF" stroke-width="2" sketch:type="MSShapeGroup"></path>
        <path d="M137.739226,73.3554495 C144.643781,70.9649306 152.058802,69.668166 159.776133,69.668166 C163.362647,69.668166 166.885168,69.9491439 170.319425,70.4875624" id="Shape" stroke="#FFFFFF" stroke-width="2" sketch:type="MSShapeGroup"></path>
        <path d="M109.657617,92.0242989 C116.457724,84.4555482 124.947376,78.4365894 134.531518,74.5573289" id="Shape" stroke="#FFFFFF" stroke-width="2" sketch:type="MSShapeGroup"></path>
        <path d="M93.7301411,123.747588 C95.9058811,112.860797 100.703836,102.926536 107.43848,94.6237123" id="Shape" stroke="#FFFFFF" stroke-width="2" sketch:type="MSShapeGroup"></path>
        <path d="M96.661285,160.591737 C93.9199115,153.25836 92.4216078,145.315953 92.4216078,137.023427 C92.4216078,133.729659 92.6584531,130.492529 93.1159616,127.325275" id="Shape" stroke="#FFFFFF" stroke-width="2" sketch:type="MSShapeGroup"></path>
        <path d="M225.580131,122.592048 C226.594446,127.241423 227.129187,132.0688 227.129187,137.023427 C227.129187,144.625277 225.869935,151.932174 223.550029,158.746992" id="Shape" stroke="#F15A29" stroke-width="2" sketch:type="MSShapeGroup"></path>
        <path d="M206.697974,88.7018453 C214.978731,97.4128962 221.498596,107.389083 224.725428,119.123221" id="Shape" stroke="#FFFFFF" stroke-width="2" sketch:type="MSShapeGroup"></path>
        <g id="Group" sketch:type="MSLayerGroup" transform="translate(77.475348, 51.292751)" font-size="16" font-family=".Lucida Grande UI" fill="#F2A8A8" font-weight="normal">
            <text id="0" sketch:type="MSTextLayer">
                <tspan x="0.78688527" y="108.54245">0</tspan>
            </text>
            <text id="1" sketch:type="MSTextLayer">
                <tspan x="-0.233093982" y="77.4147313">1</tspan>
            </text>
            <text id="2" sketch:type="MSTextLayer">
                <tspan x="15.5839766" y="38.1248981">2</tspan>
            </text>
            <text id="3" sketch:type="MSTextLayer">
                <tspan x="48.2395682" y="16.1835387">3</tspan>
            </text>
            <text id="4" sketch:type="MSTextLayer">
                <tspan x="91.1015722" y="14.6542686">4</tspan>
            </text>
            <text id="5" sketch:type="MSTextLayer">
                <tspan x="129.370691" y="32.7088649">5</tspan>
            </text>
            <text id="6" sketch:type="MSTextLayer">
                <tspan x="152.332029" y="72.8211837">6</tspan>
            </text>
            <text id="7" sketch:type="MSTextLayer">
                <tspan x="154.569555" y="110.38418">7</tspan>
            </text>
        </g>
        <g id="Group" sketch:type="MSLayerGroup" transform="translate(344.130495, 52.484715)" font-size="12.6315789" font-family=".Lucida Grande UI" fill="#A5D8EE" font-weight="normal">
            <text id="100" sketch:type="MSTextLayer">
                <tspan x="148.388209" y="71.6608081">10</tspan>
                <tspan x="148.388209" y="86.6608081">0</tspan>
            </text>
            <text id="10" sketch:type="MSTextLayer">
                <tspan x="9.23069028" y="126.309976">1</tspan>
                <tspan x="9.23069028" y="141.309976">0</tspan>
            </text>
            <text id="40" sketch:type="MSTextLayer">
                <tspan x="12.7067853" y="43.4924841">4</tspan>
                <tspan x="12.7067853" y="58.4924841">0</tspan>
            </text>
            <text id="30" sketch:type="MSTextLayer">
                <tspan x="0.0631508849" y="70.6782992">3</tspan>
                <tspan x="0.0631508849" y="85.6782992">0</tspan>
            </text>
            <text id="20" sketch:type="MSTextLayer">
                <tspan x="-0.228718057" y="99.758">2</tspan>
                <tspan x="-0.228718057" y="114.758">0</tspan>
            </text>
            <text id="50" sketch:type="MSTextLayer">
                <tspan x="33.8865085" y="22.9465418">5</tspan>
                <tspan x="33.8865085" y="37.9465418">0</tspan>
            </text>
            <text id="60" sketch:type="MSTextLayer">
                <tspan x="61.3874372" y="12.1979582">6</tspan>
                <tspan x="61.3874372" y="27.1979582">0</tspan>
            </text>
            <text id="70" sketch:type="MSTextLayer">
                <tspan x="90.7607547" y="12.1979582">7</tspan>
                <tspan x="90.7607547" y="27.1979582">0</tspan>
            </text>
            <text id="80" sketch:type="MSTextLayer">
                <tspan x="118.893192" y="23.2622962">8</tspan>
                <tspan x="118.893192" y="38.2622962">0</tspan>
            </text>
            <text id="90" sketch:type="MSTextLayer">
                <tspan x="140.704424" y="44.1256824">9</tspan>
                <tspan x="140.704424" y="59.1256824">0</tspan>
            </text>
            <text id="110" sketch:type="MSTextLayer">
                <tspan x="149.652334" y="100.700661">11</tspan>
                <tspan x="149.652334" y="115.700661">0</tspan>
            </text>
            <text id="120" sketch:type="MSTextLayer">
                <tspan x="138.855979" y="127.292485">12</tspan>
                <tspan x="138.855979" y="142.292485">0</tspan>
            </text>
            <text id="130" sketch:type="MSTextLayer">
                <tspan x="117.045912" y="149.105115">13</tspan>
                <tspan x="117.045912" y="164.105115">0</tspan>
            </text>
            <text id="140" sketch:type="MSTextLayer">
                <tspan x="91.1248627" y="161.116134">14</tspan>
                <tspan x="91.1248627" y="176.116134">0</tspan>
            </text>
            <text id="150" sketch:type="MSTextLayer">
                <tspan x="59.7694579" y="161.747643">15</tspan>
                <tspan x="59.7694579" y="176.747643">0</tspan>
            </text>
        </g>
        <text id="mph" fill="#FFFFFF" sketch:type="MSTextLayer" font-family="Raleway" font-size="9.54877311" font-weight="normal">
            <tspan x="327.519773" y="195.428383" fill="#000000">mph</tspan>
        </text>
        <text id="1/min-x1000" fill="#F2A8A8" sketch:type="MSTextLayer" font-family="Raleway" font-size="9.3429" font-weight="normal">
            <tspan x="93.050462" y="179.899415">1/min </tspan>
            <tspan x="93.050462" y="190.899415">x1000</tspan>
        </text>
        <g id="Group" sketch:type="MSLayerGroup" transform="translate(67.913272, 43.665205)" stroke="#F03B3B" stroke-width="7" opacity="0.5">
            <path d="M3.80864828,119.380308 C1.25042527,110.900218 -0.125042527,101.906718 -0.125042527,92.5917849 C-0.125042527,41.436887 41.3449439,-0.0338350368 92.5005775,-0.0338350368 C135.605679,-0.0338350368 171.833441,29.410738 182.168574,69.2831223" id="Shape" sketch:type="MSShapeGroup"></path>
        </g>
        <g id="arcs" sketch:type="MSLayerGroup" transform="translate(326.000000, 33.244141)">
            <g id="Group" transform="translate(8.407661, 61.401113)" sketch:type="MSShapeGroup">
                <path d="M18.2297442,97.8252559 C6.76431754,82.0913181 0,62.7121894 0,41.7536042 C0,27.6805902 3.04965824,14.3212052 8.52439158,2.29750604" id="Shape" stroke="#27AAE1" stroke-width="7" opacity="0.5"></path>
                <rect id="Rectangle-path" fill="#27AAE1" transform="translate(8.562978, 2.002518) rotate(-66.670498) translate(-8.562978, -2.002518) " x="7.93147737" y="-2.10223604" width="1.26300136" height="8.20950887"></rect>
            </g>
            <g id="arc1" transform="translate(0.197772, 0.142706)">
                <rect id="Rectangle-path" opacity="0" fill="#FFFFFF" sketch:type="MSShapeGroup" x="0" y="0" width="206.883535" height="206.884167"></rect>
                <circle id="Oval" fill="#FFFFFF" sketch:type="MSShapeGroup" cx="27.7873188" cy="159.777083" r="7.57835968"></circle>
                <text id="1" fill="#000000" sketch:type="MSTextLayer" font-family="Helvetica" font-size="9.26315789" font-weight="normal">
                    <tspan x="23.2716269" y="163.116112">1</tspan>
                </text>
            </g>
            <g id="Group" transform="translate(8.226758, 13.414847)" sketch:type="MSShapeGroup">
                <path d="M7.07476334,125.732014 C2.55924204,114.636916 0.0716564469,102.500761 0.0716564469,89.7831976 C0.0716564469,51.8629555 22.1907782,19.1083858 54.2311137,3.71856179" id="Shape" stroke="#27AAE1" stroke-width="7" opacity="0.5"></path>
                <rect id="Rectangle-path" fill="#27AAE1" transform="translate(54.213258, 3.806385) rotate(-27.315832) translate(-54.213258, -3.806385) " x="53.6306788" y="0.0196211986" width="1.16515798" height="7.57352687"></rect>
            </g>
            <g id="arc2" transform="translate(0.070740, 0.015674)">
                <rect id="Rectangle-path" opacity="0" fill="#FFFFFF" sketch:type="MSShapeGroup" x="0" y="0" width="207.106356" height="207.106356"></rect>
                <ellipse id="Oval" fill="#FFFFFF" sketch:type="MSShapeGroup" cx="16.8946094" cy="142.147748" rx="6.99087287" ry="6.99087287"></ellipse>
                <text id="2" fill="#000000" sketch:type="MSTextLayer" font-family="Helvetica" font-size="8.42105263" font-weight="normal">
                    <tspan x="12.5946983" y="144.665389">2</tspan>
                </text>
            </g>
            <g id="Group" transform="translate(8.475115, 7.453312)" sketch:type="MSShapeGroup">
                <path d="M-0.199343427,90.5605158 C2.51315378,40.1975522 44.2105384,0.195747221 95.2494752,0.195747221 C123.860835,0.195747221 149.536525,12.766053 167.054288,32.6854838 C171.802234,38.0846653 175.950569,44.0226896 179.396581,50.3973806" id="Shape" stroke="#27AAE1" stroke-width="7" opacity="0.5"></path>
                <rect id="Rectangle-path" fill="#27AAE1" transform="translate(179.377382, 50.146969) rotate(60.255829) translate(-179.377382, -50.146969) " x="178.839646" y="46.6516818" width="1.07547312" height="6.99057525"></rect>
            </g>
            <g id="arc3" transform="translate(0.517406, 0.462340)">
                <rect id="Rectangle-path" opacity="0" fill="#FFFFFF" sketch:type="MSShapeGroup" x="0" y="0" width="206.386943" height="206.386943"></rect>
                <circle id="Oval" fill="#FFFFFF" sketch:type="MSShapeGroup" cx="7.52873927" cy="102.713514" r="6.45320508"></circle>
                <text id="3" fill="#000000" sketch:type="MSTextLayer" font-family="Helvetica" font-size="7.57894737" font-weight="normal">
                    <tspan x="3.70161221" y="105.708462">3</tspan>
                </text>
            </g>
            <g id="Group" transform="translate(23.653141, 7.662879)" sketch:type="MSShapeGroup">
                <path d="M-0.290034125,44.014307 C16.6824165,17.5885187 46.3347307,0.0805512686 80.0747732,0.0805512686 C132.787623,0.0805512686 175.520071,42.8129992 175.520071,95.5253516 C175.519076,118.407879 167.466436,139.409882 154.04023,155.852285" id="Shape" stroke="#27AAE1" stroke-width="7" opacity="0.5"></path>
                <rect id="Rectangle-path" fill="#27AAE1" transform="translate(153.878903, 155.961278) rotate(128.328741) translate(-153.878903, -155.961278) " x="153.381651" y="152.72914" width="0.994504005" height="6.46427603"></rect>
            </g>
            <g id="arc4" transform="translate(1.339296, 0.701658)">
                <rect id="Rectangle-path" opacity="0" fill="#FFFFFF" sketch:type="MSShapeGroup" x="0" y="0" width="205.009442" height="205.00994"></rect>
                <ellipse id="Oval" fill="#FFFFFF" sketch:type="MSShapeGroup" cx="19.3919721" cy="55.1925359" rx="5.96676063" ry="5.96676063"></ellipse>
                <text id="4" fill="#000000" sketch:type="MSTextLayer" font-family="Helvetica" font-size="6.73684211" font-weight="normal">
                    <tspan x="15.5063678" y="56.4523423">4</tspan>
                </text>
            </g>
            <g id="Group" transform="translate(53.861026, 7.728478)" sketch:type="MSShapeGroup">
                <path d="M-0.0957902606,14.0843834 C14.4392082,5.14062394 31.5514653,-0.0180616517 49.8696851,-0.0180616517 C102.598593,-0.0180616517 145.343576,42.7278474 145.343576,95.4562923 C145.343576,148.185664 102.598593,190.929257 49.8696851,190.929257 C38.329679,190.929257 27.2680752,188.882733 17.0280449,185.131467" id="Shape" stroke="#27AAE1" stroke-width="7" opacity="0.5"></path>
                <rect id="Rectangle-path" fill="#27AAE1" transform="translate(16.997572, 185.230713) rotate(199.159714) translate(-16.997572, -185.230713) " x="16.534456" y="182.220461" width="0.925768208" height="6.0205036"></rect>
            </g>
            <g id="arc5" transform="translate(1.882447, 1.244808)">
                <rect id="Rectangle-path" opacity="0" fill="#FFFFFF" sketch:type="MSShapeGroup" x="0" y="0" width="203.750251" height="203.749788"></rect>
                <circle id="Oval" fill="#FFFFFF" sketch:type="MSShapeGroup" cx="49.0906431" cy="22.2297252" r="5.55743129"></circle>
                <text id="5" fill="#000000" sketch:type="MSTextLayer" font-family="Helvetica" font-size="5.89473684" font-weight="normal">
                    <tspan x="45.5629709" y="23.9058584">5</tspan>
                </text>
            </g>
        </g>
        <g id="arc0" sketch:type="MSLayerGroup" transform="translate(59.822285, 35.574218)" fill="#FFFFFF" opacity="0">
            <rect id="Rectangle-path" sketch:type="MSShapeGroup" x="0" y="1.42108547e-14" width="201.261097" height="201.261097"></rect>
        </g>
        <g id="needle-mph" sketch:type="MSLayerGroup" transform="translate(341.800204, 48.989279)">
            <rect id="Rectangle-path" opacity="0" fill="#FFFFFF" sketch:type="MSShapeGroup" x="0" y="0" width="174.975722" height="174.975722"></rect>
            <path d="M101.039668,77.4512979 L40.5453149,134.751987 L39.2764715,133.448772 L98.0767032,74.4155114 L100.647597,74.8722484 L101.039668,77.4512979 Z" id="NeedleMph" opacity="0.5" fill="#F03B3B" sketch:type="MSShapeGroup"></path>
        </g>
        <g id="needle-rpm" sketch:type="MSLayerGroup" transform="translate(59.822285, 35.574218)">
            <rect id="Rectangle-path" opacity="0" fill="#FFFFFF" sketch:type="MSShapeGroup" x="0" y="0" width="201.261097" height="201.261097"></rect>
            <path d="M114.266068,97.9715558 L36.3329452,128.839407 L35.4480854,126.721775 L112.202867,93.0301693 L114.64708,94.9102205 L114.266068,97.9715558 Z" id="NeedleRpm" opacity="0.5" fill="#F03B3B" sketch:type="MSShapeGroup"></path>
        </g>
        <text id="RPM" sketch:type="MSTextLayer" font-family="Raleway" font-size="24" font-weight="normal" sketch:alignment="middle" fill="#9B9B9B">
            <tspan x="135.092" y="177">RPM</tspan>
        </text>
        <text id="engine-speed" sketch:type="MSTextLayer" font-family="Raleway" font-size="12" font-weight="normal" sketch:alignment="middle" fill="#9B9B9B">
            <tspan x="123.098" y="190">engine speed</tspan>
        </text>
        <text id="MPH" sketch:type="MSTextLayer" font-family="Raleway" font-size="24" font-weight="normal" sketch:alignment="middle" fill="#9B9B9B">
            <tspan x="404.417944" y="176.425928">MPH</tspan>
        </text>
        <text id="road-speed" sketch:type="MSTextLayer" font-family="Raleway" font-size="12" font-weight="normal" sketch:alignment="middle" fill="#9B9B9B">
            <tspan x="323.785944" y="240.826858">road speed</tspan>
        </text>
    </g>
</svg>