<?xml version="1.0" encoding="UTF-8" standalone="no"?>
<svg width="858px" height="324px" viewBox="0 0 858 324" version="1.1" xmlns="http://www.w3.org/2000/svg" xmlns:xlink="http://www.w3.org/1999/xlink" xmlns:sketch="http://www.bohemiancoding.com/sketch/ns">
    <!-- Generator: Sketch 3.0.4 (8053) - http://www.bohemiancoding.com/sketch -->
    <title>US-area</title>
    <desc>Created with Sketch.</desc>
    <defs></defs>
    <g id="Page-1" stroke="none" stroke-width="1" fill="none" fill-rule="evenodd" sketch:type="MSPage">
        <path d="M46,6 L845.893706,6 M46,49 L845.893706,49 M46,92 L845.893706,92 M46,135 L845.893706,135 M46,177 L845.893706,177 M46,220 L845.893706,220 M46,263 L845.893706,263" id="Shape" stroke="#989798" sketch:type="MSShapeGroup"></path>
        <g id=".layer-01" sketch:type="MSLayerGroup" transform="translate(45.000000, 22.000000)" fill="#6196C9">
            <path d="M0,283.96701 L0,0 L200,82 L401,110 L601,153 L800.867,195 L800.867,283.967 L0,283.96701 Z" id="Shape" sketch:type="MSShapeGroup"></path>
        </g>
        <g id=".later-02" sketch:type="MSLayerGroup" transform="translate(45.000000, 22.000000)" fill="#CD675F">
            <path d="M200,82 L401,110 L601,132 L800.867,174 L800.867,195 L601,153 L401,110 L200,82 L0,0 L200,82 Z" id="Shape" sketch:type="MSShapeGroup"></path>
        </g>
        <g id=".layer-03" sketch:type="MSLayerGroup" transform="translate(45.000000, 22.000000)" fill="#AAC46C">
            <path d="M200,76 L401,101 L601,113 L800.867,132 L800.867,174 L601,132 L401,110 L200,82 L0,0 L200,76 Z" id="Shape" sketch:type="MSShapeGroup"></path>
        </g>
        <g id=".layer-04" sketch:type="MSLayerGroup" transform="translate(45.000000, 22.000000)" fill="#937BB1">
            <path d="M200,52 L401,82 L601,110 L800.867,132 L601,113 L401,101 L200,76 L0,0 L200,52 Z" id="Shape" sketch:type="MSShapeGroup"></path>
        </g>
        <g id=".layer-04" sketch:type="MSLayerGroup" transform="translate(45.000000, 22.000000)" fill="#5ABAD2">
            <path d="M200,1 L401,82 L601,110 L800.867,132 L601,110 L401,82 L200,52 L0,0 L200,1 Z" id="Shape" sketch:type="MSShapeGroup"></path>
        </g>
        <path d="M32,6 L35,6 M32,49 L35,49 M32,92 L35,92 M32,135 L35,135 M32,177 L35,177 M32,220 L35,220 M32,263 L35,263 M32,305.967 L35,305.967" id="Shape" stroke="#989798" sketch:type="MSShapeGroup"></path>
        <path d="M44.464595,305.967 L845.867,305.967" id="Shape" stroke="#989798" sketch:type="MSShapeGroup"></path>
        <path d="M845.867,306 L845.867,308.983 M646,306 L646,308.983 M446,306 L446,308.983 M245,306 L245,308.983 M45,306 L45,308.983 M-155,306 L-155,308.983" id="Shape" stroke="#989798" sketch:type="MSShapeGroup"></path>
        <text id="0" fill="#010101" sketch:type="MSTextLayer" font-family="Helvetica" font-size="10" font-weight="normal">
            <tspan x="20.9648" y="309.9668" fill="#000000">0</tspan>
        </text>
        <text id="50" fill="#010101" sketch:type="MSTextLayer" font-family="Helvetica" font-size="10" font-weight="normal">
            <tspan x="15.4033" y="267.1143" fill="#000000">50</tspan>
        </text>
        <text id="100" fill="#010101" sketch:type="MSTextLayer" font-family="Helvetica" font-size="10" font-weight="normal">
            <tspan x="9.8418" y="224.2617" fill="#000000">100</tspan>
        </text>
        <text id="150" fill="#010101" sketch:type="MSTextLayer" font-family="Helvetica" font-size="10" font-weight="normal">
            <tspan x="9.8418" y="181.4092" fill="#000000">150</tspan>
        </text>
        <text id="200" fill="#010101" sketch:type="MSTextLayer" font-family="Helvetica" font-size="10" font-weight="normal">
            <tspan x="9.8418" y="138.5576" fill="#000000">200</tspan>
        </text>
        <text id="250" fill="#010101" sketch:type="MSTextLayer" font-family="Helvetica" font-size="10" font-weight="normal">
            <tspan x="9.8418" y="95.7051" fill="#000000">250</tspan>
        </text>
        <text id="300" fill="#010101" sketch:type="MSTextLayer" font-family="Helvetica" font-size="10" font-weight="normal">
            <tspan x="9.8418" y="52.8525" fill="#000000">300</tspan>
        </text>
        <text id="350" fill="#010101" sketch:type="MSTextLayer" font-family="Helvetica" font-size="10" font-weight="normal">
            <tspan x="9.8418" y="10" fill="#000000">350</tspan>
        </text>
        <text id="2012" fill="#010101" sketch:type="MSTextLayer" font-family="Helvetica" font-size="10" font-weight="normal">
            <tspan x="34.1606" y="322" fill="#000000">2012</tspan>
        </text>
        <text id="2020" fill="#010101" sketch:type="MSTextLayer" font-family="Helvetica" font-size="10" font-weight="normal">
            <tspan x="234.3091" y="322" fill="#000000">2020</tspan>
        </text>
        <text id="2025" fill="#010101" sketch:type="MSTextLayer" font-family="Helvetica" font-size="10" font-weight="normal">
            <tspan x="434.457" y="322" fill="#000000">2025</tspan>
        </text>
        <text id="2030" fill="#010101" sketch:type="MSTextLayer" font-family="Helvetica" font-size="10" font-weight="normal">
            <tspan x="634.6055" y="322" fill="#000000">2030</tspan>
        </text>
        <text id="2035" fill="#010101" sketch:type="MSTextLayer" font-family="Helvetica" font-size="10" font-weight="normal">
            <tspan x="834.7539" y="322" fill="#000000">2035</tspan>
        </text>
    </g>
</svg>